<svg width="19" height="15" viewBox="0 0 19 15" fill="none" xmlns="http://www.w3.org/2000/svg">
<path d="M1.84009 6.52051C1.2878 6.52051 0.840088 6.96822 0.840088 7.52051C0.840088 8.07279 1.2878 8.52051 1.84009 8.52051L1.84009 6.52051ZM17.9072 8.22761C18.2977 7.83709 18.2977 7.20393 17.9072 6.8134L11.5432 0.44944C11.1527 0.0589156 10.5195 0.0589156 10.129 0.44944C9.7385 0.839964 9.7385 1.47313 10.129 1.86365L15.7859 7.52051L10.129 13.1774C9.7385 13.5679 9.7385 14.2011 10.129 14.5916C10.5195 14.9821 11.1527 14.9821 11.5432 14.5916L17.9072 8.22761ZM1.84009 8.52051L17.2001 8.52051L17.2001 6.52051L1.84009 6.52051L1.84009 8.52051Z" fill="#41E295"/>
</svg>
