<svg width="40" height="40" viewBox="0 0 40 40" fill="none" xmlns="http://www.w3.org/2000/svg">
<path d="M40 20C40 31.0457 31.0457 40 20 40C8.9543 40 0 31.0457 0 20C0 8.9543 8.9543 0 20 0C31.0457 0 40 8.9543 40 20Z" fill="white"/>
<path fill-rule="evenodd" clip-rule="evenodd" d="M20.001 10.001C14.4786 10.0008 10.0016 14.4776 10.0015 20.0002C10.0014 25.5226 14.4782 29.9995 20.0006 29.9997C22.5952 29.9998 25.0882 28.9912 26.9531 27.1874L26.9534 27.187C27.3734 26.7781 27.3823 26.1064 26.9736 25.6865L26.9736 25.6864C26.5648 25.2666 25.8933 25.2576 25.4733 25.666C22.3397 28.6882 17.3492 28.598 14.3268 25.4644C11.3043 22.3308 11.3945 17.3402 14.5282 14.3178C17.6618 11.2953 22.6524 11.3855 25.6749 14.5191C27.0942 15.9906 27.8863 17.956 27.8841 20.0004V20.0006C27.8841 21.0011 27.7694 21.6269 27.5191 22.0025C27.2821 22.3581 26.901 22.5189 26.2597 22.5189C25.7139 22.5189 25.3212 22.3173 25.0566 21.9212C24.7844 21.5137 24.6355 20.8817 24.6354 20.0013C24.6651 17.4127 22.5911 15.29 20.0024 15.2597C17.4133 15.2294 15.2899 17.3036 15.2596 19.8927C15.2293 22.4818 17.3036 24.6051 19.8926 24.6354C21.2064 24.6508 22.4628 24.1143 23.3592 23.163C24.0047 24.1179 25.1008 24.6789 26.2628 24.635C27.182 24.6345 27.8843 24.4177 28.4178 24.0647C28.9516 23.7115 29.3049 23.2297 29.5383 22.7183C30.0002 21.7063 30.0002 20.5596 30.0002 20.0071V20.0005C30.0002 14.4781 25.5235 10.0011 20.001 10.001ZM25.5866 25.783L25.473 25.6663C25.4731 25.6662 25.4732 25.6661 25.4733 25.666C25.4734 25.6659 25.4735 25.6659 25.4735 25.6658L25.5866 25.783ZM17.4824 20.0005C17.4824 18.6096 18.61 17.482 20.0009 17.482C21.3918 17.482 22.5193 18.6096 22.5193 20.0005C22.5193 21.3914 21.3918 22.5189 20.0009 22.5189C18.61 22.5189 17.4824 21.3914 17.4824 20.0005Z" fill="#08162E"/>
</svg>
