<svg width="40" height="40" viewBox="0 0 40 40" fill="none" xmlns="http://www.w3.org/2000/svg">
<circle cx="20" cy="20" r="20" fill="white"/>
<path d="M23.2108 23.0251C22.4032 23.0251 21.7447 22.3668 21.7447 21.559C21.7447 20.7514 22.4032 20.0929 23.2108 20.0929C24.0186 20.0929 24.677 20.7514 24.677 21.559C24.677 22.3668 24.0186 23.0251 23.2108 23.0251ZM23.4698 25.4313C22.468 26.4302 20.5516 26.5091 19.9889 26.5091C19.426 26.5091 17.5069 26.4302 16.5078 25.4313C16.3588 25.2821 16.3588 25.043 16.5078 24.8937C16.657 24.7446 16.8962 24.7446 17.0454 24.8937C17.6757 25.5242 19.0237 25.7493 19.9889 25.7493C20.9513 25.7493 22.3019 25.5242 22.9324 24.8937C23.0814 24.7446 23.3206 24.7446 23.4698 24.8937C23.6162 25.043 23.6162 25.2821 23.4698 25.4313ZM15.295 21.5591C15.295 20.7515 15.9534 20.093 16.7612 20.093C17.5688 20.093 18.2273 20.7515 18.2273 21.5591C18.2273 22.3668 17.5688 23.0254 16.7612 23.0254C15.9534 23.0251 15.295 22.3668 15.295 21.5591ZM29.3652 20.093C29.3652 18.9589 28.4479 18.0416 27.3138 18.0416C26.7594 18.0416 26.2584 18.261 25.8899 18.6185C24.4884 17.6054 22.5553 16.9526 20.4024 16.8766L21.3367 12.4781L24.39 13.1283C24.4266 13.905 25.0625 14.5241 25.8478 14.5241C26.6581 14.5241 27.3139 13.8684 27.3139 13.0579C27.3139 12.2475 26.6581 11.5918 25.8478 11.5918C25.2708 11.5918 24.7783 11.9267 24.5391 12.4106L21.1285 11.6846C21.0328 11.6649 20.9344 11.682 20.8527 11.7353C20.7712 11.7887 20.7148 11.8703 20.6952 11.966C20.6952 11.966 19.6708 16.8457 19.6708 16.8738C17.4787 16.93 15.5088 17.5858 14.085 18.6129C13.7164 18.2583 13.2182 18.0416 12.6667 18.0416C11.5326 18.0416 10.6152 18.9617 10.6152 20.093C10.6152 20.9259 11.1133 21.6436 11.8281 21.9643C11.7972 22.1671 11.7802 22.3751 11.7802 22.5863C11.7802 25.7436 15.4554 28.3017 19.9889 28.3017C24.5222 28.3017 28.1974 25.7436 28.1974 22.5863C28.1974 22.378 28.1805 22.1725 28.1496 21.97C28.8616 21.6492 29.3652 20.9317 29.3652 20.093Z" fill="#08162E"/>
</svg>
