<svg width="20" height="20" viewBox="0 0 20 20" fill="none" xmlns="http://www.w3.org/2000/svg">
<g clip-path="url(#clip0)">
<path d="M19.5993 17.7258L16.3606 14.4482C16.5609 14.1806 16.7279 13.913 16.8948 13.6455C16.8948 13.6455 16.8948 13.6455 16.9282 13.612C16.9616 13.5786 16.9616 13.5452 16.995 13.5117C17.0618 13.4114 17.1285 13.2776 17.1619 13.1773C17.1953 13.1438 17.1953 13.0769 17.2287 13.0435C17.2955 12.8763 17.3957 12.709 17.4624 12.5418V12.5084C17.5292 12.3411 17.596 12.1739 17.6294 12.0401C17.6294 12.0067 17.6628 11.9732 17.6628 11.9398C17.7296 11.7726 17.7629 11.6054 17.8297 11.4381V11.4047C17.9299 11.0368 17.9967 10.6689 18.0634 10.301C18.0634 10.2676 18.0634 10.2341 18.0634 10.1672C18.0968 10.0334 18.0968 9.86622 18.0968 9.73244C18.0968 9.699 18.0968 9.63211 18.0968 9.59866C18.0968 9.43144 18.1302 9.23077 18.1302 9.06355C18.1302 4.08027 14.0568 0 9.04842 0C8.84808 0 8.68114 0 8.51419 0.0334448C8.4808 0.0334448 8.41402 0.0334448 8.38064 0.0334448C8.24708 0.0334448 8.08013 0.0668896 7.94658 0.0668896C7.91319 0.0668896 7.8798 0.0668896 7.81302 0.0668896C7.44574 0.133779 7.07846 0.200669 6.71119 0.301003H6.6778C6.51085 0.334448 6.34391 0.401338 6.17696 0.468227C6.14357 0.468227 6.11018 0.501672 6.0768 0.501672C5.90985 0.568562 5.74291 0.635452 5.60935 0.668896H5.57596C5.40902 0.735786 5.24207 0.802676 5.07513 0.90301C5.04174 0.936455 5.00835 0.9699 4.94157 1.00334C4.8414 1.07023 4.70785 1.10368 4.60768 1.17057C4.57429 1.20401 4.5409 1.20401 4.50751 1.23746C4.50751 1.23746 4.47412 1.23746 4.47412 1.2709C3.13856 2.07358 2.00334 3.17726 1.23539 4.51505C1.23539 4.51505 1.23539 4.51505 1.202 4.5485C1.16861 4.58194 1.16861 4.61539 1.13523 4.64883C1.06845 4.74916 1.00167 4.88294 0.968281 4.98328C0.934892 5.01672 0.934892 5.08361 0.901503 5.11706C0.834725 5.28428 0.734558 5.45151 0.66778 5.61873V5.65217C0.601002 5.8194 0.534224 5.98662 0.500835 6.1204C0.500835 6.15385 0.467446 6.18729 0.467446 6.22074C0.400668 6.35452 0.367279 6.52174 0.33389 6.68896V6.72241C0.233723 7.0903 0.166945 7.45819 0.100167 7.82609C0.100167 7.85953 0.100167 7.89298 0.100167 7.95987C0.066778 8.09365 0.066778 8.26087 0.066778 8.39465C0.066778 8.42809 0.066778 8.49498 0.066778 8.52843C0 8.69565 0 8.89632 0 9.06355C0 14.0803 4.07346 18.1271 9.04842 18.1271C9.24875 18.1271 9.41569 18.1271 9.58264 18.0936C9.61603 18.0936 9.68281 18.0936 9.71619 18.0936C9.84975 18.0936 10.0167 18.0602 10.1503 18.0602C10.1836 18.0602 10.217 18.0602 10.2838 18.0602C10.6511 17.9933 11.0184 17.9264 11.3856 17.8261H11.419C11.586 17.7926 11.7529 17.7258 11.9199 17.6589C11.9533 17.6589 11.9866 17.6254 12.02 17.6254C12.187 17.5585 12.3539 17.4916 12.4875 17.4582H12.5209C12.6878 17.3913 12.8548 17.3244 13.0217 17.2241C13.0551 17.1906 13.1219 17.1906 13.1553 17.1572C13.2554 17.0903 13.389 17.0234 13.4892 16.99C13.5225 16.9565 13.5559 16.9565 13.5893 16.9231C13.5893 16.9231 13.5893 16.9231 13.6227 16.8896C13.9232 16.7224 14.1903 16.5217 14.4574 16.3211L17.6962 19.5652C17.9633 19.8328 18.2972 19.9666 18.6311 19.9666C18.9649 19.9666 19.2988 19.8328 19.5659 19.5652C20.1336 19.097 20.1336 18.2274 19.5993 17.7258ZM2.67112 9.06355C2.67112 8.86288 2.67112 8.69565 2.70451 8.49498C2.70451 8.42809 2.70451 8.39465 2.70451 8.32776C2.7379 8.16054 2.7379 7.95987 2.77129 7.79264C2.77129 7.7592 2.80467 7.72575 2.80467 7.69231C2.83806 7.55853 2.87145 7.39131 2.90484 7.25753C2.90484 7.19064 2.93823 7.15719 2.97162 7.0903C3.0384 6.92308 3.07179 6.75585 3.13856 6.58863C3.13856 6.55518 3.17195 6.52174 3.17195 6.52174C3.23873 6.38796 3.30551 6.22074 3.37229 6.08696C3.40568 6.05351 3.40568 6.02007 3.43907 5.98662C4.00668 4.94983 4.87479 4.08027 5.94324 3.47826C5.97663 3.44482 6.01002 3.44482 6.04341 3.41137C6.17696 3.34448 6.34391 3.27759 6.47746 3.2107C6.51085 3.2107 6.54424 3.17726 6.54424 3.17726C6.71119 3.11037 6.87813 3.04348 7.04508 3.01003C7.11185 2.97659 7.14524 2.97659 7.21202 2.94314C7.34558 2.9097 7.51252 2.87625 7.64608 2.84281C7.67947 2.84281 7.71286 2.80936 7.74624 2.80936C7.91319 2.77592 8.11352 2.74248 8.28047 2.74248C8.34725 2.74248 8.38063 2.74248 8.44741 2.74248C8.68114 2.67559 8.88147 2.67559 9.04842 2.67559C12.5543 2.67559 15.4257 5.55184 15.4257 9.06355C15.4257 9.26421 15.4257 9.43144 15.3923 9.63211C15.3923 9.699 15.3923 9.73244 15.3923 9.79933C15.3589 9.96656 15.3589 10.1672 15.3255 10.3344C15.3255 10.3679 15.2922 10.4013 15.2922 10.4348C15.2588 10.5686 15.2254 10.7358 15.192 10.8696C15.192 10.9365 15.1586 10.9699 15.1252 11.0368C15.0584 11.204 15.025 11.3712 14.9583 11.5385C14.9583 11.5719 14.9249 11.6054 14.9249 11.6388C14.8581 11.7726 14.7913 11.9398 14.7245 12.0736C14.6912 12.107 14.6912 12.1739 14.6578 12.2074C14.0902 13.2441 13.222 14.1137 12.187 14.6823C12.1536 14.7157 12.1202 14.7157 12.0534 14.7492C11.9199 14.8161 11.7863 14.8829 11.6194 14.9498C11.586 14.9498 11.5526 14.9833 11.5192 14.9833C11.3523 15.0502 11.1853 15.1171 11.0184 15.1505C10.9516 15.1839 10.9182 15.1839 10.8514 15.2174C10.7179 15.2508 10.5843 15.2843 10.4174 15.3177C10.384 15.3177 10.3506 15.3512 10.3172 15.3512C10.1503 15.3846 9.94992 15.4181 9.78297 15.4181C9.71619 15.4181 9.68281 15.4181 9.61603 15.4181C9.41569 15.4515 9.24875 15.4515 9.04842 15.4515C5.54257 15.485 2.67112 12.6087 2.67112 9.06355Z" fill="#6E41E2"/>
<path d="M19.5992 17.7258L16.3605 14.4482L16.3271 14.4817C15.8263 15.1506 15.2253 15.7526 14.5575 16.2543L14.4907 16.3212L17.7295 19.5653C17.9966 19.8329 18.3305 19.9666 18.6643 19.9666C18.9982 19.9666 19.3321 19.8329 19.5992 19.5653C20.1335 19.0971 20.1335 18.2275 19.5992 17.7258Z" fill="#41E295"/>
</g>
<defs>
<clipPath id="clip0">
<rect width="20" height="20" fill="white"/>
</clipPath>
</defs>
</svg>
