<svg width="37" height="24" viewBox="0 0 37 24" fill="none" xmlns="http://www.w3.org/2000/svg">
<path d="M28.003 20.2721L30.4255 24H7.48218C7.04674 24 6.62357 23.963 6.20653 23.8891C5.79562 23.8213 5.40312 23.7166 5.02287 23.581C3.6123 23.0881 2.39184 22.1761 1.5087 21.0054C1.25112 20.6665 1.0242 20.303 0.827946 19.9209C0.300514 18.8858 0 17.7212 0 16.4827V7.51733C0 3.37047 3.35472 0 7.48218 0H16.8104C16.749 0.0554557 16.6939 0.117073 16.6325 0.178691C16.5221 0.295764 16.4179 0.418999 16.3197 0.548395C16.3136 0.560719 16.3013 0.573042 16.2952 0.585366C16.2645 0.628498 16.2339 0.677792 16.2032 0.720924C16.191 0.73941 16.1787 0.757895 16.1664 0.77638L13.8298 4.36868H7.48218C5.75269 4.36868 4.34212 5.78588 4.34212 7.52349V16.4888C4.34212 16.5381 4.34212 16.5936 4.34212 16.6429C4.36665 17.2159 4.55064 17.7458 4.84502 18.2018C5.02901 18.4914 5.26206 18.744 5.53191 18.9597L5.6055 19.0151C5.68523 19.0706 5.76496 19.1261 5.84469 19.1754C5.89375 19.2062 5.94281 19.237 5.99188 19.2616C6.13294 19.3417 6.28013 19.4033 6.42732 19.4588C6.47638 19.4773 6.52544 19.4896 6.56837 19.5081C6.77076 19.5697 6.97928 19.6128 7.1878 19.6313C7.21233 19.6313 7.23686 19.6313 7.2614 19.6313C7.32886 19.6375 7.40245 19.6375 7.47605 19.6375H27.5859L28.003 20.2721ZM37 24L22.3239 1.41104C21.7474 0.523748 20.7784 0 19.7297 0C18.9753 0 18.27 0.271117 17.7181 0.745571L17.6015 0.850321C17.5586 0.893453 17.5157 0.930424 17.4789 0.973556C17.3991 1.05982 17.3194 1.14608 17.2519 1.24467C17.209 1.30013 17.1722 1.34942 17.1416 1.40488L6.30466 18.0786C6.6297 18.325 7.04061 18.4668 7.48218 18.4668H11.2417L19.7297 5.40385L21.6922 16.3594L23.6547 11.4547L31.8054 24H37Z" fill="white"/>
</svg>
